<svg xmlns="http://www.w3.org/2000/svg" width="512" height="512" viewBox="0 0 512 512" version="1.1">
	<path d="M 252.500 44.039 C 247.550 45.082, 217.625 52.443, 186 60.396 C 113.302 78.679, 98.636 81.928, 84.553 82.873 C 71.593 83.743, 67.434 85.551, 60.106 93.501 C 41.750 113.415, 47.655 151.718, 70.896 163.483 C 73.300 164.700, 77.825 165.362, 86.396 165.751 L 98.500 166.300 102.097 169.900 C 112.319 180.132, 112.497 199.556, 102.460 209.593 L 98.053 214 87.276 214.006 C 74.958 214.012, 69.714 215.142, 67.529 218.261 C 65.179 221.617, 65.590 227.411, 68.410 230.694 C 70.790 233.465, 70.994 233.506, 84.741 234 C 98.007 234.476, 98.831 234.629, 102.253 237.242 C 107.251 241.057, 111.327 249.777, 111.834 257.740 C 112.322 265.393, 110.685 271.754, 106.876 277.012 C 102.014 283.724, 100.132 284.440, 85.872 285 C 75.061 285.425, 72.726 285.811, 70.384 287.561 C 66.627 290.368, 65.461 294.258, 66.919 299.122 C 68.793 305.380, 71.391 306.424, 86.530 307 C 98.982 307.474, 99.850 307.644, 103.308 310.284 C 111.102 316.233, 115.376 328.407, 113.243 338.578 C 111.816 345.380, 107.704 352.305, 102.676 356.375 C 99.079 359.286, 98.390 359.444, 86.555 360.072 C 71.884 360.851, 67.623 362.488, 60.528 370.074 C 54.876 376.116, 51.233 383.738, 49.767 392.589 C 46.708 411.048, 57.202 433.778, 71.754 440.216 C 75.582 441.909, 79.584 442.411, 94.451 443.064 C 114.179 443.931, 117.332 444.326, 174.500 453.087 C 245.400 463.952, 260.048 466, 266.807 465.996 C 271.352 465.993, 290.935 462.462, 327.815 454.996 L 382.130 444 415.428 444 C 449.797 444, 458.151 443.293, 461.327 440.117 C 463.104 438.341, 463.175 431.696, 463.285 256.687 C 463.395 82.657, 463.325 75.016, 461.587 73.096 C 458.120 69.265, 451.653 68.763, 415 69.478 C 356.985 70.609, 365.258 71.208, 343 64.268 C 300.099 50.891, 268.007 41.934, 263.500 42.078 C 262.400 42.113, 257.450 42.996, 252.500 44.039 M 198.500 72.067 C 184.214 75.815, 133.240 87.801, 111.500 92.525 C 88.942 97.426, 87 97.933, 87 98.916 C 87 100.382, 89.402 101.812, 92.451 102.162 C 94.581 102.406, 95.972 103.474, 97.451 106 C 99.232 109.042, 99.500 111.202, 99.500 122.500 C 99.500 136.923, 98.478 140.525, 93.741 142.795 C 88.693 145.215, 90.870 147.469, 97.941 147.145 C 113.320 146.439, 218.598 131.460, 221.528 129.560 C 223.981 127.969, 228.551 118.912, 229.940 112.885 C 232.551 101.559, 229.861 86.077, 223.543 76.067 C 218.485 68.056, 215.567 67.590, 198.500 72.067 M 168.678 88.054 C 143.476 94.064, 122.101 99.464, 121.178 100.054 C 118.684 101.649, 129.067 100.441, 143.500 97.457 C 160.199 94.005, 218.009 80.324, 218.663 79.670 C 219.598 78.735, 217.951 76.997, 216.191 77.063 C 215.261 77.098, 193.880 82.044, 168.678 88.054 M 318.675 77.658 C 317.229 79.104, 320.611 81.064, 328.847 83.552 C 340.381 87.035, 342 88.152, 342 92.622 C 342 100.866, 347.991 106.732, 358.773 109.045 C 362.356 109.813, 364 110.655, 364 111.722 C 364 114.236, 354.523 112.734, 337.500 107.521 C 309.119 98.830, 249.484 83, 245.123 83 C 244.511 83, 244.682 84.387, 245.551 86.468 C 246.447 88.612, 247 93.323, 247 98.810 L 247 107.683 251.250 108.938 C 258.780 111.161, 266.912 116.159, 275.304 123.723 C 287.385 134.611, 287.214 134.544, 302.500 134.249 C 309.650 134.111, 321.800 133.553, 329.500 133.009 C 337.200 132.465, 348.450 132.026, 354.500 132.034 C 363.895 132.045, 366.376 132.408, 371.500 134.519 C 378.925 137.578, 379.927 137.616, 377.223 134.738 C 376.054 133.493, 374.063 130.231, 372.799 127.488 C 370.856 123.273, 370.504 120.873, 370.523 112 C 370.552 98.651, 372.637 93.246, 379.013 89.994 C 381.312 88.820, 382.964 87.630, 382.683 87.349 C 382.401 87.068, 381.262 87.324, 380.151 87.919 C 374.928 90.715, 364.432 89.045, 337.500 81.135 C 323.640 77.064, 319.951 76.382, 318.675 77.658 M 434.655 93.829 C 433.129 95.515, 433 108.282, 433 257.138 C 433 391.359, 433.229 418.930, 434.354 420.469 C 436.401 423.269, 444.823 422.937, 447.232 419.962 C 448.940 417.852, 449.012 410.246, 448.762 256.979 C 448.507 100.482, 448.449 96.154, 446.595 94.105 C 444.097 91.344, 437.051 91.181, 434.655 93.829 M 207.500 117.700 C 161.451 126.326, 106.898 137.808, 105.500 139.168 C 104.847 139.803, 105.369 139.954, 107 139.603 C 108.375 139.306, 113.100 138.565, 117.500 137.955 C 126.625 136.690, 187.017 125.333, 206.423 121.231 C 213.733 119.687, 219.525 117.957, 219.757 117.250 C 220.273 115.676, 217.824 115.766, 207.500 117.700 M 281.077 151.752 C 277.738 153.457, 271.813 162.146, 273.107 163.440 C 273.437 163.771, 283.012 166.052, 294.385 168.511 C 305.757 170.969, 319.436 174.075, 324.781 175.411 C 330.126 176.748, 340.575 179.054, 348 180.536 C 355.425 182.018, 361.931 183.632, 362.457 184.122 C 363.058 184.682, 362.841 185.588, 361.874 186.554 C 360.271 188.158, 353.678 186.924, 292.062 173.493 C 283.021 171.523, 274.705 170.043, 273.582 170.205 C 270.414 170.663, 269.421 174.992, 270.731 182.641 C 272.057 190.379, 276.042 197.420, 281.031 200.840 C 284.309 203.087, 285.077 203.185, 295 202.620 C 353.566 199.289, 362.793 199.385, 371.611 203.422 C 374.708 204.840, 377.628 206, 378.100 206 C 378.572 206, 377.513 203.949, 375.746 201.442 C 372.970 197.504, 372.482 195.876, 372.159 189.479 C 371.703 180.440, 374.177 174.290, 379.624 170.924 C 384.286 168.042, 383.135 167.295, 377.403 169.484 C 370.864 171.981, 365.053 171.190, 342 164.664 C 321.142 158.760, 293.738 151.634, 288 150.622 C 285.617 150.202, 283.408 150.563, 281.077 151.752 M 204.500 155.091 C 193.500 156.692, 177.608 158.901, 169.185 160 C 153.172 162.090, 150 163.026, 150 165.659 C 150 166.533, 151.800 169.943, 154 173.238 C 156.200 176.532, 158 180.091, 158 181.145 C 158 182.200, 158.619 183.300, 159.376 183.591 C 160.133 183.881, 178.021 181.840, 199.126 179.054 C 220.232 176.269, 238.302 173.992, 239.281 173.995 C 241.115 174, 242.740 176.593, 241.615 177.719 C 241.267 178.066, 232.324 179.369, 221.741 180.613 C 197.565 183.455, 163.183 187.876, 160.363 188.505 C 158.886 188.834, 158.033 190.010, 157.601 192.314 C 157.257 194.147, 155.631 197.767, 153.988 200.358 C 147.436 210.689, 149.865 211.527, 177.020 208.308 C 235.639 201.359, 234.051 201.626, 237.140 198.169 C 241.310 193.502, 243.390 185.175, 242.668 176.040 C 241.909 166.454, 238.612 156.627, 235.274 154 C 231.974 151.405, 229.132 151.506, 204.500 155.091 M 180.109 226.114 C 151.898 228.422, 150.715 229.143, 156.921 240.265 C 158.528 243.144, 160.358 247.459, 160.988 249.854 L 162.133 254.207 166.316 253.634 C 168.617 253.318, 177.025 252.576, 185 251.984 C 206.720 250.373, 205.645 250.682, 206.292 245.861 C 206.594 243.608, 208.227 238.950, 209.921 235.510 C 213.298 228.649, 213.599 226.999, 211.800 225.200 C 210.342 223.742, 208.422 223.797, 180.109 226.114 M 283.500 225.573 C 281.850 226.431, 279.529 228.042, 278.343 229.153 C 274.780 232.491, 269.953 242.603, 269.303 248.089 L 268.694 253.234 271.040 251.979 C 272.813 251.030, 278.039 250.879, 292.443 251.360 C 326.508 252.498, 361.971 254.364, 363.127 255.078 C 363.748 255.462, 363.914 256.330, 363.495 257.008 C 362.933 257.918, 360.229 258.074, 353.117 257.606 C 334.449 256.378, 300.307 255.056, 284.500 254.950 L 268.500 254.843 268.809 258.672 C 269.483 267.009, 276.196 277.529, 283.086 281.044 C 287.956 283.529, 293.162 283.523, 311.210 281.012 C 330.732 278.297, 363.663 275, 371.265 275 C 374.702 275, 379.037 275.437, 380.899 275.971 C 385.802 277.377, 386.688 276.152, 382.719 273.455 C 372.625 266.596, 372.481 245.779, 382.487 239.875 C 384.466 238.708, 385.880 237.547, 385.630 237.296 C 385.379 237.046, 381.779 237.411, 377.630 238.108 C 367.690 239.778, 361.162 238.867, 323.606 230.565 C 307.271 226.954, 292.239 224.003, 290.203 224.006 C 288.166 224.010, 285.150 224.714, 283.500 225.573 M 196 255.535 C 195.175 255.702, 187.236 256.394, 178.358 257.073 L 162.217 258.309 161.579 262.904 C 161.229 265.432, 159.640 270.408, 158.049 273.962 C 155.879 278.810, 155.402 280.883, 156.140 282.262 C 158.123 285.968, 161.070 286.361, 177.724 285.146 C 186.401 284.512, 197.017 283.996, 201.316 283.997 C 209.377 284, 213 282.936, 213 280.566 C 213 279.817, 211.679 276.692, 210.064 273.622 C 208.450 270.553, 206.837 265.895, 206.480 263.271 C 205.384 255.205, 205.243 254.988, 201.183 255.116 C 199.157 255.180, 196.825 255.368, 196 255.535 M 176.141 305.109 C 162.208 305.719, 157.205 306.291, 155.391 307.480 C 152.343 309.477, 152.377 309.989, 156.061 317.472 C 157.744 320.891, 159.437 325.896, 159.822 328.594 L 160.523 333.500 180.439 333.772 C 201.950 334.065, 201.956 334.064, 201.985 328.667 C 201.993 327.108, 203.350 322.462, 205 318.341 C 206.650 314.220, 208 310.241, 208 309.497 C 208 306.870, 202.947 303.992, 198.615 304.152 C 196.352 304.235, 186.238 304.666, 176.141 305.109 M 276.500 308.837 C 268.573 313.671, 263.320 324.249, 264.599 332.800 C 264.953 335.164, 265.895 337.752, 266.692 338.550 C 268.778 340.635, 275.826 340.386, 297.599 337.458 C 339.696 331.796, 353.849 330.086, 361 329.800 C 367.933 329.523, 368.500 329.651, 368.500 331.500 C 368.500 333.132, 367.580 333.640, 363.500 334.261 C 353.993 335.708, 289.462 343.983, 279 345.097 C 273.225 345.712, 268.333 346.371, 268.129 346.562 C 267.924 346.753, 268.928 348.908, 270.359 351.349 C 275.148 359.522, 282.610 363.817, 289.815 362.550 C 291.842 362.194, 309.475 358.740, 329 354.876 C 365.368 347.679, 371.097 347.098, 381.500 349.549 L 384.500 350.256 381.311 346.878 C 377.232 342.556, 376 339.199, 376 332.403 C 376 325.567, 377.919 320.859, 381.908 317.910 C 383.609 316.653, 385 315.259, 385 314.812 C 385 313.553, 381.601 313.851, 377.790 315.443 C 369.421 318.940, 365.375 318.607, 299 308.958 C 282.402 306.545, 280.277 306.533, 276.500 308.837 M 159.633 342.750 C 159.291 344.813, 157.883 348.907, 156.505 351.849 C 151.485 362.569, 152.829 363.521, 175 364.949 C 184.075 365.533, 193.975 366.252, 197 366.546 C 203.107 367.141, 206.828 365.769, 208.028 362.482 C 208.519 361.135, 207.417 356.890, 204.720 349.732 L 200.676 339 180.466 339 L 160.256 339 159.633 342.750 M 379.500 380.461 C 374.048 382.571, 281.358 404.747, 269.500 406.779 C 265.928 407.391, 264.602 408.044, 264.857 409.068 C 266.053 413.868, 265.997 418.270, 264.666 423.994 C 263.835 427.566, 263.248 430.581, 263.361 430.694 C 263.579 430.913, 305.405 422.199, 340.500 414.624 C 352.050 412.130, 364.715 409.562, 368.643 408.916 L 375.787 407.742 375.282 402.121 C 374.552 393.993, 376.350 388.609, 381.707 382.882 C 384.219 380.197, 386.100 378.031, 385.887 378.070 C 385.674 378.108, 382.800 379.184, 379.500 380.461 M 95.605 384.525 C 98.762 385.910, 100.058 388.171, 101.950 395.593 L 102.993 399.687 118.830 400.340 C 141.455 401.273, 220.099 406.396, 230.852 407.638 C 234.513 408.061, 235.777 408.541, 234.852 409.159 C 233.191 410.269, 216.873 409.595, 168 406.401 C 147.375 405.053, 124.416 403.671, 116.980 403.330 L 103.460 402.710 102.182 408.899 C 101.479 412.303, 100.673 415.688, 100.392 416.421 C 100.082 417.228, 100.823 417.990, 102.271 418.353 C 105.576 419.183, 144.091 424.053, 190 429.447 C 237.385 435.014, 235.489 434.706, 233.924 436.592 C 232.980 437.729, 231.310 437.928, 226.600 437.461 C 217.220 436.531, 149.167 428.248, 124.500 425.034 C 91.521 420.736, 90.522 420.666, 88.986 422.517 C 86.477 425.540, 89.923 426.786, 109.500 429.935 C 151.186 436.640, 228.722 446.537, 232.376 445.620 C 236.168 444.669, 241.010 439.194, 244.416 432.007 C 247.222 426.087, 247.500 424.598, 247.500 415.500 C 247.500 406.158, 247.280 405.062, 244.161 398.848 C 242.325 395.190, 239.400 390.661, 237.661 388.783 L 234.500 385.370 172 384.161 C 137.625 383.495, 105.675 382.999, 101 383.057 C 92.932 383.158, 92.658 383.232, 95.605 384.525" stroke="none" fill="black" fill-rule="evenodd"/>
</svg>